<svg xmlns="http://www.w3.org/2000/svg" width="17.996" height="20.442" viewBox="0 0 17.996 20.442"><path fill="currentColor" stroke="currentColor" stroke-width=".4" d="M17.568 8.059 9.232.418a.7.7 0 0 0-.951.018L.411 8.077a.7.7 0 0 0-.211.5v10.97a.694.694 0 0 0 .694.694h5.787a.694.694 0 0 0 .7-.694v-5.094h3.242v5.095a.694.694 0 0 0 .694.694h5.789a.694.694 0 0 0 .694-.694V8.571a.7.7 0 0 0-.228-.512Zm-1.164 10.794h-4.4v-5.095a.694.694 0 0 0-.694-.694H6.681a.694.694 0 0 0-.694.694v5.095H1.581V8.866l7.192-6.98 7.628 6.992v9.975Z"/></svg>