<svg xmlns="http://www.w3.org/2000/svg" width="16.577" height="18.6" viewBox="0 0 16.577 18.6"><path fill="currentColor" stroke="currentColor" stroke-width=".6" d="M.93 18.297a.63.63 0 0 1-.63-.63c0-4.424 2.837-6.862 7.989-6.862s7.989 2.438 7.989 6.862a.63.63 0 0 1-.63.63Zm.647-1.251h13.428c-.246-3.31-2.5-4.986-6.713-4.986s-6.471 1.673-6.714 4.986ZM4.141 4.528a4.1 4.1 0 0 1 1.172-3A4.1 4.1 0 0 1 8.292.299a4.1 4.1 0 0 1 2.979 1.229 4.1 4.1 0 0 1 1.171 3 4.34 4.34 0 0 1-4.149 4.5 4.344 4.344 0 0 1-4.16-4.5Zm1.251 0a3.1 3.1 0 0 0 2.9 3.254 3.094 3.094 0 0 0 2.9-3.253 2.88 2.88 0 0 0-.813-2.109 2.88 2.88 0 0 0-2.085-.872 2.84 2.84 0 0 0-2.1.856 2.84 2.84 0 0 0-.806 2.122Z"/></svg>